<svg xmlns="http://www.w3.org/2000/svg" viewBox="0 0 267.31 91.25"><defs><style>.cls-1{fill:#005faa;}.cls-2{fill:#fd0;}</style></defs><title>Asset 1</title><g id="Layer_2" data-name="Layer 2"><g id="Layer_1-2" data-name="Layer 1"><g id="_Group_" data-name="&lt;Group&gt;"><rect id="_Path_" data-name="&lt;Path&gt;" class="cls-1" y="2.37" width="247.92" height="88.88"/><g id="_Group_2" data-name="&lt;Group&gt;"><path id="_Path_2" data-name="&lt;Path&gt;" class="cls-2" d="M124,87.24c67.35,0,122-18.25,122-40.76S191.31,5.72,124,5.72,2,24,2,46.48s54.6,40.76,122,40.76"/><path id="_Compound_Path_" data-name="&lt;Compound Path&gt;" class="cls-1" d="M259.34,14.47a6.37,6.37,0,0,0,6.39-6.6,6.41,6.41,0,1,0-12.82,0,6.38,6.38,0,0,0,6.43,6.6m-8-6.6a8,8,0,1,1,8,7.92,7.88,7.88,0,0,1-8-7.92m8-.54c1.17,0,2.21-.08,2.21-1.48,0-1.13-1-1.34-2-1.34h-1.88V7.33Zm-1.65,5.12h-1.38V3.34h3.47c2.15,0,3.21.79,3.21,2.59a2.37,2.37,0,0,1-2.36,2.51l2.59,4h-1.55l-2.4-3.95h-1.59Z"/><path id="_Compound_Path_2" data-name="&lt;Compound Path&gt;" class="cls-1" d="M194.31,49.7l-2.43-6a5.61,5.61,0,0,1-.34-1.68h0a5.75,5.75,0,0,1-.33,1.68l-2.44,6Zm3.19,12.43a2.93,2.93,0,0,0,.65-2.47l-1.59-4h-9.72l-1.59,4a2.93,2.93,0,0,0,.64,2.47H166.23A7.8,7.8,0,0,0,168,59.6l10.43-27.48a2.41,2.41,0,0,0-.46-2.75H209.3a2.67,2.67,0,0,0-.52,2.79l11,27.44a6.69,6.69,0,0,0,2.08,2.53Z"/><path id="_Path_3" data-name="&lt;Path&gt;" class="cls-1" d="M33.9,62.13c1.25-.62,1.17-2.73,1.17-3V31.41a2.4,2.4,0,0,0-1-2.06h22.6a2.41,2.41,0,0,0-1,2.06V59.13c0,.28-.08,2.39,1.17,3Z"/><path id="_Path_4" data-name="&lt;Path&gt;" class="cls-1" d="M87.3,42.4,94.9,31.81a1.67,1.67,0,0,0-.15-2.46H117a9.9,9.9,0,0,0-2,1.92L106.7,42.71l10.43,16.68a10.29,10.29,0,0,0,2.32,2.27c.39.3.65.47.65.47h-26s.74-.44.09-2L87.3,48.7V59.13c0,.28-.28,2.39,1,3H66.07c1.25-.62,1.17-2.73,1.17-3V31.41a2.4,2.4,0,0,0-1-2.06h22a2.41,2.41,0,0,0-1,2.06Z"/><path id="_Path_5" data-name="&lt;Path&gt;" class="cls-1" d="M162.39,62.13V50.61a5.23,5.23,0,0,1-3.45,1.46H145.05V49.45h10.67c.59,0,2.42.21,2.88.81l0-10c-.48.67-2.3.83-2.89.83H145V38.47h13.89a5.2,5.2,0,0,1,3.45,1.47V29.35h-37.7a2.41,2.41,0,0,1,1,2.06V59.13c0,.28.08,2.39-1.17,3Z"/></g></g></g></g></svg>